<?xml version="1.0" encoding="utf-8"?>
<!-- Generator: Adobe Illustrator 19.0.0, SVG Export Plug-In . SVG Version: 6.00 Build 0)  -->
<svg version="1.1" id="Capa_1" xmlns="http://www.w3.org/2000/svg" xmlns:xlink="http://www.w3.org/1999/xlink" x="0px" y="0px"
	 viewBox="0 0 300 300" style="enable-background:new 0 0 300 300;" xml:space="preserve">
<style type="text/css">
	.st0{fill:#FFFFFF;}
</style>
<g>
	<g>
		<g>
			<path class="st0" d="M215.9,116.5c-1.4-0.7-3.1-0.7-4.5,0.2c-1.2,0.7-2,2-2.2,3.4c-3-1.5-6.1-2.8-9.2-4l0-3.3
				c0-2-1.2-3.7-3.1-4.3c-12.2-4.2-25-6.8-38-7.6c-1.3-0.1-2.5,0.4-3.4,1.2c-0.9,0.9-1.4,2.1-1.4,3.4l0,1.3c-1.6,0-3.1-0.1-4.6-0.1
				s-3,0-4.6,0.1l0-1.3c0-1.3-0.5-2.5-1.5-3.4c-0.9-0.9-2.2-1.3-3.4-1.2c-13,0.9-25.8,3.5-38,7.8c-1.8,0.7-3.1,2.4-3.1,4.4l0,3.3
				c-3.1,1.2-6.2,2.6-9.2,4.1c-0.2-1.4-1-2.6-2.2-3.4c-1.4-0.8-3.1-0.9-4.5-0.1C35.1,142,5.5,191.1,5.6,245
				c0,11.1,4.4,21.4,12.2,29.2c7.8,7.8,18.2,12,29.2,12h0.1l205.5-0.6c11.1,0,21.4-4.4,29.2-12.2c7.8-7.8,12.1-18.3,12-29.3
				C293.8,190.2,263.9,141.3,215.9,116.5z M275.4,267c-6.1,6.1-14.1,9.5-22.7,9.5l-205.5,0.6H47c-8.6,0-16.6-3.3-22.7-9.4
				c-6.1-6.1-9.5-14.1-9.5-22.7c-0.1-47.9,24.8-91.8,65.6-116.2l0.2,59.2c0,7.6,6.2,13.8,13.8,13.8h0c3.7,0,7.1-1.5,9.7-4.1
				c2.6-2.6,4-6.1,4-9.8c0-2.5-2.1-4.6-4.6-4.6c-2.6,0-4.6,2.1-4.6,4.6c0,1.2-0.5,2.4-1.3,3.3c-0.9,0.9-2,1.4-3.2,1.4
				c-2.5,0-4.6-2.1-4.6-4.6l-0.2-57.4c3-1.6,6.1-3.1,9.2-4.4l0,6.5c0,2.5,2.1,4.6,4.6,4.6c2.6,0,4.6-2.1,4.6-4.6l0-16.5
				c8.9-2.9,18.2-4.9,27.6-5.9l0.2,77.5c0,7.6,6.2,13.8,13.8,13.8h0c3.7,0,7.1-1.5,9.7-4.1c2.6-2.6,4-6.1,4-9.8
				c0-2.5-2.1-4.6-4.6-4.6c-2.6,0-4.6,2.1-4.6,4.6c0,1.2-0.5,2.4-1.3,3.3c-0.9,0.9-2,1.4-3.2,1.4c-2.5,0-4.6-2.1-4.6-4.6l-0.2-72
				c1.6-0.1,3.1-0.1,4.6-0.1c1.5,0,3,0,4.6,0.1l0.2,53.6c0,2.5,2.1,4.6,4.6,4.6c2.6,0,4.6-2.1,4.6-4.6l-0.2-59.1
				c9.4,0.9,18.7,2.8,27.6,5.7l0.2,71.7c0,3.7,1.5,7.1,4.1,9.7c2.6,2.6,6.1,4,9.7,4h0c3.7,0,7.1-1.5,9.7-4.1c2.6-2.6,4-6.1,4-9.8
				c0-2.5-2.1-4.6-4.6-4.6c-2.6,0-4.6,2.1-4.6,4.6c0,1.2-0.5,2.4-1.3,3.3c-0.9,0.9-2,1.4-3.2,1.4c-1.2,0-2.4-0.5-3.3-1.3
				c-0.9-0.9-1.4-2-1.4-3.2L200,126c3.1,1.3,6.2,2.8,9.2,4.3l0.1,39c0,2.5,2.1,4.6,4.6,4.6c2.6,0,4.6-2.1,4.6-4.6l-0.1-40.8
				c40.9,24.2,66.1,67.9,66.3,115.8C284.8,252.8,281.4,260.9,275.4,267z"/>
		</g>
	</g>
	<g>
		<g>
			<circle id="XMLID_5_" class="st0" cx="33.2" cy="240.4" r="4.6"/>
		</g>
	</g>
	<g>
		<g>
			<circle id="XMLID_4_" class="st0" cx="51.7" cy="258.7" r="4.6"/>
		</g>
	</g>
	<g>
		<g>
			<circle id="XMLID_3_" class="st0" cx="254" cy="239.7" r="4.6"/>
		</g>
	</g>
	<g>
		<g>
			<path id="XMLID_2_" class="st0" d="M164.6,69.8c0-7.3,1.8-10.7,4-14.7c2.4-4.4,5.1-9.5,5.1-19.1c0-9.6-2.8-14.6-5.2-19.1
				c-1.2-2.2-4-3-6.2-1.8c-2.2,1.2-3,4-1.8,6.2c2.2,4,4.1,7.4,4.1,14.7s-1.8,10.7-4,14.7c-2.4,4.4-5.1,9.5-5.1,19.1
				c0,9.6,2.8,14.6,5.2,19.1c0.8,1.5,2.4,2.4,4,2.4c0.7,0,1.5-0.2,2.2-0.6c2.2-1.2,3-4,1.8-6.2C166.5,80.4,164.6,77,164.6,69.8z"/>
		</g>
	</g>
	<g>
		<g>
			<path id="XMLID_1_" class="st0" d="M133.9,69.8c0-7.3,1.8-10.7,4-14.7c2.4-4.4,5.1-9.5,5.1-19.1c0-9.6-2.8-14.6-5.2-19.1
				c-1.2-2.2-4-3-6.2-1.8c-2.2,1.2-3,4-1.8,6.2c2.2,4,4.1,7.4,4.1,14.7s-1.8,10.7-4,14.7c-2.4,4.4-5.1,9.5-5.1,19.1
				c0,9.6,2.8,14.6,5.2,19.1c0.8,1.5,2.4,2.4,4,2.4c0.7,0,1.5-0.2,2.2-0.6c2.2-1.2,3-4,1.8-6.2C135.8,80.5,134,77.1,133.9,69.8z"/>
		</g>
	</g>
</g>
</svg>
