<?xml version="1.0" encoding="UTF-8" standalone="no"?>
<svg
   xmlns:dc="http://purl.org/dc/elements/1.1/"
   xmlns:cc="http://creativecommons.org/ns#"
   xmlns:rdf="http://www.w3.org/1999/02/22-rdf-syntax-ns#"
   xmlns:svg="http://www.w3.org/2000/svg"
   xmlns="http://www.w3.org/2000/svg"
   xmlns:sodipodi="http://sodipodi.sourceforge.net/DTD/sodipodi-0.dtd"
   xmlns:inkscape="http://www.inkscape.org/namespaces/inkscape"
   version="1.1"
   x="0"
   y="0"
   width="80"
   height="100"
   viewBox="0, 0, 699.999, 381.325"
   id="svg4209"
   inkscape:version="0.91 r13725"
   sodipodi:docname="croissant-remix.svg">
  <metadata
     id="metadata4217">
    <rdf:RDF>
      <cc:Work
         rdf:about="">
        <dc:format>image/svg+xml</dc:format>
        <dc:type
           rdf:resource="http://purl.org/dc/dcmitype/StillImage" />
      </cc:Work>
    </rdf:RDF>
  </metadata>
  <defs
     id="defs4215">
    <filter
       inkscape:collect="always"
       style="color-interpolation-filters:sRGB"
       id="filter4783"
       x="-0.083397756"
       width="1.1667955"
       y="-0.22168427"
       height="1.4433685">
      <feGaussianBlur
         inkscape:collect="always"
         stdDeviation="21.720343"
         id="feGaussianBlur4785" />
    </filter>
  </defs>
  <sodipodi:namedview
     pagecolor="#ffffff"
     bordercolor="#666666"
     borderopacity="1"
     objecttolerance="10"
     gridtolerance="10"
     guidetolerance="10"
     inkscape:pageopacity="0"
     inkscape:pageshadow="2"
     inkscape:window-width="1916"
     inkscape:window-height="1035"
     id="namedview4213"
     showgrid="false"
     inkscape:zoom="0.68"
     inkscape:cx="349.99951"
     inkscape:cy="190.66251"
     inkscape:window-x="4"
     inkscape:window-y="1"
     inkscape:window-maximized="1"
     inkscape:current-layer="Layer_1" />
  <g
     id="Layer_1">
    <g
       id="g4787">
      <path
         inkscape:connector-curvature="0"
         id="path4759"
         d="m 314.41936,12.416117 -120.02425,58.171263 -14.72691,30.92649 -30.19014,12.51787 -64.798374,33.87188 -19.881317,22.82669 9.572486,39.76264 -55.225882,67.0074 -3.681726,72.89817 11.045177,14.7269 66.271059,-17.67228 49.335117,-17.67228 44.91706,22.09035 63.32567,-6.62711 38.28995,-16.93593 64.79837,13.99055 50.07146,-8.83614 33.87188,-8.0998 39.76263,16.1996 41.23533,8.83614 36.81725,-27.24477 50.80782,22.09035 69.21644,22.09036 11.78152,-47.12609 L 653.1381,231.84696 618.52988,201.65681 628.83871,158.21245 565.51304,125.07692 516.91426,104.45925 503.66005,94.886769 480.097,64.696619 423.39843,29.352055 364.49082,13.888808 343.87316,7.9980468 Z"
         style="fill:#dfbf88;fill-rule:evenodd;stroke:none;stroke-width:1px;stroke-linecap:butt;stroke-linejoin:miter;stroke-opacity:1;fill-opacity:1" />
      <path
         transform="matrix(0.99980002,0,0,1.0025998,0.07004654,-0.85481629)"
         inkscape:connector-curvature="0"
         d="m 37.739041,304.75777 c 2.09834,-3.84178 3.7822,-7.88057 5.530199,-11.89409 1.589522,-3.99786 3.507249,-7.79937 5.727608,-11.46763 2.353913,-3.30553 5.054583,-6.31737 7.689506,-9.38671 2.601228,-3.20112 5.059185,-6.51625 7.662356,-9.71656 1.414181,-2.08655 3.251507,-3.79712 5.041032,-5.54228 2.712459,-2.75113 5.094418,-5.78628 7.467332,-8.83436 2.393844,-3.18051 5.100218,-6.06346 7.879521,-8.88921 3.159268,-2.46837 5.911718,-5.39712 8.519643,-8.44445 4.11844,-5.15731 8.549902,-9.9915 13.310682,-14.5366 4.60269,-4.21332 9.25116,-8.35146 13.58325,-12.85551 4.3432,-4.63449 8.29689,-9.62378 12.51874,-14.3691 3.82981,-4.10363 7.87054,-8.00453 11.96309,-11.83569 2.77145,-2.39264 5.29661,-5.05552 7.91316,-7.61792 2.31542,-2.39452 4.72909,-4.73861 7.49002,-6.59636 0.68045,-0.5646 1.50561,-0.92364 2.19683,-1.47257 0.30344,-0.24097 0.54368,-0.5572 0.84611,-0.79947 0.67803,-0.54314 1.52266,-0.94504 2.26212,-1.3958 0.25989,-0.53384 0.88126,-0.53844 1.27053,-0.87615 0.18213,-0.158 0.22774,-0.45864 0.43444,-0.5815 11.19508,-6.6543 21.96748,-14.15461 33.72297,-19.72148 3.57525,-1.69308 -92.54801,53.95288 1.2204,-0.4249 -10.91312,6.30675 -21.84219,12.58505 -32.73935,18.92025 -0.15669,0.0911 0.35417,-0.0919 0.51048,-0.18362 11.2399,-6.59747 22.35677,-13.41298 33.67016,-19.87937 10.98086,-6.27633 -21.75828,12.91378 -32.67248,19.30913 -0.11202,0.0656 0.11425,-0.30568 0.24354,-0.30688 0.18801,-0.002 0.32037,0.20013 0.48056,0.3002 -0.0839,-0.87776 0.68826,-0.63406 1.07591,-1.08835 0.61247,-0.71776 -0.28504,-0.20609 0.38959,-0.53394 0.5876,-0.10161 0.16306,-0.49112 0.37163,-0.92105 0.0532,-0.1097 0.2588,-0.0588 0.32414,-0.16152 0.15854,-0.24918 0.17339,-0.57016 0.30866,-0.83313 0.21791,-0.42362 0.49733,-0.81147 0.746,-1.2172 3.12111,-4.77763 6.4406,-9.41796 9.81605,-14.01217 2.92752,-4.10134 5.8595,-8.19651 8.89426,-12.21672 1.68407,-2.2707 3.62484,-4.34074 5.78803,-6.14136 11.93147,-8.71577 1.34227,-1.04572 35.37128,-21.000016 0.75334,-0.44175 2.42833,-1.30471 3.21481,-1.62659 1.33184,-0.54507 2.70668,-0.97504 4.05151,-1.486102 4.39079,-1.7515 8.93026,-3.10989 13.45401,-4.46043 5.29865,-1.60687 10.67879,-2.92079 16.02747,-4.34278 6.38399,-1.4459 12.82326,-2.52716 19.12494,-4.330701 1.03848,-0.290022 2.07168,-0.600389 3.11546,-0.870067 2.27501,-0.587784 4.58866,-1.013848 6.86196,-1.608445 3.47297,-0.908382 6.88358,-2.097968 10.31336,-3.158483 4.17627,-1.165069 8.10947,-3.044157 12.21198,-4.412846 0.67377,-0.322861 1.42802,-0.255797 2.1293,-0.43981 0.2742,-0.07195 0.51118,-0.275517 0.79204,-0.312361 0.33247,-0.04361 0.67157,0.129097 1.00284,0.07691 0.2906,-0.04578 0.53805,-0.24136 0.80709,-0.36204 0.37265,-0.01009 0.7453,-0.02017 1.11797,-0.03026 2.96017,-0.574118 6.00407,-0.551951 9.0077,-0.557178 4.99451,-0.02417 9.98847,0.07672 14.98239,0.138686 6.59046,0.05206 13.18104,0.05238 19.77163,0.07024 3.98026,0.252518 8.01249,0.0071 11.97765,0.518833 1.69215,0.218398 3.78704,0.726337 5.44992,1.097924 3.95299,1.074644 7.94145,2.088111 11.85885,3.295954 0.74124,0.228542 5.67156,1.956879 6.43804,2.224423 2.84306,1.023184 5.75327,1.947976 8.53512,3.140609 2.1725,0.931393 4.20906,2.190188 6.27271,3.339602 3.47469,2.48735 6.82776,5.14643 10.00845,8.01083 2.81566,2.833 5.62526,5.669002 8.80476,8.079932 1.73821,1.364116 3.6956,2.467556 5.30761,3.997696 0.3908,0.37095 1.79047,1.93313 2.17063,2.35345 2.3488,2.49609 4.36187,5.31747 6.81839,7.71149 0.65721,0.64049 1.36201,1.22854 2.04301,1.84281 3.94008,3.53229 8.45576,6.28288 12.9068,9.08187 0.6062,0.45694 1.2053,0.92377 1.8186,1.37081 2.76331,2.01419 4.7125,3.76294 7.06158,6.25821 3.06654,3.05272 6.38531,5.80792 9.6366,8.64818 3.30313,2.74886 6.78989,5.20753 9.89504,8.19598 2.33307,2.32017 4.08689,5.14048 6.20008,7.6485 1.52131,1.80555 3.16783,3.49807 4.75164,5.24721 6.21283,6.09006 13.25475,11.22317 20.49783,15.95872 3.91494,2.72116 8.24352,4.72841 12.32253,7.15928 0.7314,0.43587 4.59316,2.97414 5.25968,3.41033 5.56396,3.70468 11.42614,6.85156 17.4629,9.6708 3.5316,1.4355 7.19493,2.50209 10.78959,3.75993 3.00518,1.07614 5.58315,2.89484 8.15144,4.76255 4.08672,3.14748 8.28321,6.13641 12.5073,9.08858 3.19793,2.04422 6.20209,4.36574 9.08784,6.8384 2.03652,1.64004 3.21597,4.08925 5.27249,5.69767 2.06373,1.27799 3.69302,3.12453 5.49955,4.72681 1.17989,1.30827 2.50212,2.49761 3.6148,3.86899 1.59107,1.96098 0.18268,0.51578 1.71753,1.99691 1.82554,1.93331 3.89377,3.60416 5.82848,5.41915 1.90235,1.59524 3.52797,3.45694 5.01264,5.44846 1.61672,1.6766 3.07211,3.50394 4.66055,5.21581 1.79222,1.35695 3.13427,3.21136 4.61065,4.89307 1.32955,1.48482 2.63133,3.0098 3.83718,4.60131 1.03227,0.93169 2.03639,1.90544 3.00421,2.90791 0.60392,0.18206 0.82177,0.89166 1.30421,1.22004 0.0815,0.0555 0.22244,-0.0669 0.29449,8.9e-4 0.23448,0.22053 1.0306,1.44895 1.22865,1.74699 1.48971,1.53419 2.9462,3.10196 4.44071,4.63351 1.19599,1.16736 2.53102,2.18732 3.89611,3.14192 0.076,0.0883 0.52966,0.69211 0.77582,0.7937 0.0624,0.0258 0.15029,-0.0646 0.20114,-0.0197 0.17558,0.15498 0.56768,0.63104 0.83677,0.87349 0.0592,0.0492 0.11839,0.0983 0.17759,0.14753 0,0 -33.12929,20.85328 -33.12929,20.85328 l 0,0 c -0.0643,-0.0652 -0.12866,-0.13036 -0.19297,-0.19554 -0.5087,-0.50034 -0.91807,-0.953 -1.51338,-1.50785 -1.27574,-1.23226 -2.6663,-2.34843 -3.8058,-3.72059 -1.58332,-1.64818 -3.29585,-3.16934 -4.80962,-4.8734 -0.86865,-0.88981 -1.90805,-1.61724 -2.77068,-2.54313 -1.06269,-1.10317 -2.0546,-2.27609 -3.08111,-3.41369 -1.15039,-1.52783 -2.40173,-2.9834 -3.65562,-4.4234 -1.4156,-1.6765 -2.78686,-3.3905 -4.42768,-4.85538 -1.64153,-1.80696 -3.29166,-3.60183 -4.90132,-5.43871 -1.42358,-1.74155 -2.76487,-3.54496 -4.54361,-4.94527 -2.06409,-1.80012 -4.03153,-3.70884 -5.96858,-5.64827 -1.72711,-1.89587 -3.35196,-3.89285 -5.22703,-5.64729 -1.7576,-1.66679 -3.72369,-3.0607 -5.50428,-4.70009 -1.81621,-1.82797 -3.29819,-3.95692 -5.17753,-5.72323 -2.62432,-2.45864 -5.41196,-4.71733 -8.32216,-6.81897 -4.15851,-3.00131 -8.21126,-6.18465 -12.63403,-8.78386 -2.59416,-1.44614 -5.19666,-2.86976 -8.00268,-3.85607 -3.51831,-1.33438 -6.97087,-2.86596 -10.29694,-4.63954 -5.898,-3.23186 -11.74322,-6.56669 -17.49338,-10.06377 -5.79736,-3.49763 -11.50266,-7.13276 -17.02346,-11.07125 -7.35118,-5.07851 -14.68401,-10.25775 -21.21645,-16.41234 -4.08979,-3.93081 -7.97909,-8.03421 -11.88139,-12.15164 -3.04284,-2.89221 -6.33203,-5.48416 -9.55798,-8.16013 -3.39366,-2.84951 -6.79151,-5.70461 -9.99885,-8.77075 -2.65506,-2.5005 -5.29621,-5.03665 -8.31507,-7.09003 -4.39017,-3.09035 -8.80231,-6.17202 -12.85591,-9.71671 -3.43078,-2.94522 -6.63228,-6.11619 -9.725,-9.42476 -2.176,-2.19059 -4.54121,-4.1369 -6.96586,-6.04066 -3.11166,-2.59638 -6.03354,-5.41574 -8.92468,-8.26148 -3.00665,-2.67169 -6.08947,-5.26 -9.51392,-7.3706 -1.18779,-0.69405 -2.34107,-1.45231 -3.56018,-2.08776 -3.27991,-1.70962 -6.78309,-2.994576 -10.25648,-4.218906 -5.99109,-2.04221 -12.10908,-3.648122 -18.31138,-4.885302 -5.5111,-0.93441 -11.09089,-1.14416 -16.67097,-1.27547 -6.64638,0.0138 -13.29277,0.006 -19.93903,0.058 -5.15195,0.0689 -10.30617,0.13431 -15.45303,0.3907 -3.07624,0.23413 -6.12951,0.59098 -9.14924,1.24667 -3.86967,1.235372 2.06201,-0.5828 -2.05491,0.41625 -0.25233,0.0612 -0.45967,0.252 -0.7078,0.32894 -0.85344,0.26462 -1.78568,0.32273 -2.59504,0.763032 -3.72873,1.33001 -7.53239,2.42829 -11.33258,3.52537 -6.78068,1.959216 -13.60045,3.753596 -20.41641,5.580546 -6.36514,1.53959 -12.82985,2.61615 -19.14298,4.38034 -5.42943,1.50786 -10.87991,2.94441 -16.24427,4.68255 -4.51882,1.46053 -9.03459,2.9367 -13.40438,4.82152 -1.95409,0.84105 -3.80807,1.77126 -5.66957,2.8055 -0.52533,0.29186 -2.09116,1.18579 -1.57417,0.87894 32.51503,-19.29864 41.23648,-25.027966 29.93619,-17.63844 -3.38018,2.16518 1.09031,-0.72931 -2.11767,1.44516 -0.33773,0.22892 -0.72175,0.38958 -1.0357,0.65115 -1.17599,0.97977 -1.94213,2.44064 -3.34076,3.17015 -3.25359,4.12727 -6.68667,8.10889 -9.69233,12.43735 -3.07445,4.30473 -6.29006,8.50754 -8.86529,13.1558 -0.16828,0.31521 -0.31431,0.64379 -0.50483,0.94564 -0.0934,0.14788 -0.28691,0.22963 -0.34209,0.39614 -0.0699,0.21108 0.0832,0.4668 -0.0106,0.66811 -0.0607,0.13039 -0.59182,-0.38469 -0.4204,0.87516 -0.38855,1.96344 0.22413,-0.51343 -0.3832,0.67758 -0.24417,0.47884 -0.12832,1.59466 -0.9218,1.37399 0.0259,1.44835 0.30391,0.6623 -0.39045,1.07379 -11.19487,6.63423 -22.99272,12.32745 -33.54105,19.9785 -10.22717,7.41809 21.68145,-12.91133 32.57355,-19.27674 0.18808,-0.10991 -0.28883,0.32916 -0.43323,0.49373 -11.28157,6.52832 -22.56315,13.05664 -33.84472,19.58496 85.66548,-50.1894 0.45342,-0.33093 -0.94731,0.75705 -9.96299,7.73849 21.77123,-12.65158 32.58794,-19.09785 0.20064,-0.11958 -0.48894,-0.0255 -0.6922,0.0894 -0.47705,0.26971 -0.59264,1.04004 -1.28651,1.02997 -0.70965,0.6396 -1.43929,1.30931 -2.30042,1.73821 -0.34885,0.17375 -0.76082,0.21276 -1.08697,0.42727 -0.80343,0.52841 -1.26113,1.51624 -2.22889,1.83916 -1.76597,1.19115 -0.84272,0.65301 -2.77248,1.60959 -0.47303,0.3133 -0.86075,0.74307 -1.29994,1.1037 -1.27062,1.04331 -2.70209,1.88196 -3.73712,3.19479 -0.41783,0.43325 -1.92521,2.00781 -2.35542,2.40681 -0.44322,0.41107 -0.93326,0.76794 -1.37576,1.17981 -2.05299,1.91088 -0.78125,0.90612 -2.83017,2.94726 -0.54458,0.54251 -1.12734,1.04396 -1.691,1.56594 -2.16442,1.6889 -3.95951,3.45323 -5.94395,5.34588 -2.18437,2.08332 -4.5324,3.99076 -6.56583,6.23599 -4.39096,4.56743 -8.30223,9.56276 -12.44372,14.36038 -1.05267,1.15841 -3.00534,3.32963 -4.10294,4.44818 -3.05096,3.10916 -6.42912,5.85693 -9.68117,8.73976 -4.60838,4.33002 -9.27674,8.63279 -12.87598,13.91007 -4.62043,5.46698 1.25353,-1.58656 -2.82344,3.62096 -1.51107,1.93008 -3.29343,3.60451 -5.06235,5.28148 -2.31992,1.53767 -0.70245,0.31893 -2.78303,2.31192 -1.95285,1.87065 -3.97572,3.69021 -5.54033,5.93314 -0.67211,0.80059 -2.01909,2.37519 -2.63237,3.22517 -0.39342,0.54525 -0.70993,1.145 -1.10265,1.69075 -0.98747,1.37222 -2.1958,2.55511 -3.22543,3.89179 -0.98252,1.27681 -2.10135,2.56318 -3.31143,3.62853 -0.31314,0.27568 -0.6827,0.48083 -0.99214,0.76081 -0.37403,0.33841 -0.701797,0.72622 -1.052698,1.08934 -2.636236,3.30088 -5.553207,6.37363 -7.950724,9.87269 -2.421276,3.10932 -5.108005,5.97974 -7.491204,9.11998 -2.864789,3.09232 -4.8407,7.00413 -6.445468,10.89465 -1.057407,2.17055 -1.95189,4.37677 -2.79966,6.64109 -0.253307,0.67657 -0.437289,1.38038 -0.721607,2.04409 -0.210526,0.49144 -0.551341,0.91823 -0.758536,1.41114 -0.176815,0.42063 -0.25816,0.8764 -0.38724,1.31459 0,0 -35.099441,16.33764 -35.099441,16.33764 z"
         id="path4765"
         style="opacity:1;fill:#eddab9;fill-opacity:1;stroke:none;stroke-width:2;stroke-linecap:round;stroke-linejoin:round;stroke-miterlimit:4;stroke-dasharray:none;stroke-opacity:1;filter:url(#filter4783)" />
      <path
         id="path22036"
         fill="#000000"
         d="M349.518,356.191 C323.358,356.191 298.544,350.205 278.866,339.419 L265.489,345.119 L252.691,350.561 C233.187,358.671 210.575,366.97 190.777,366.97 C184.56,366.97 178.651,366.167 173.222,364.602 C159.971,360.76 149.254,352.482 139.698,342.513 C123.254,348.472 107.592,355.248 93.02,361.549 C67.467,372.601 47.279,381.325 32.19,381.325 C16.766,381.325 10.031,372.384 7.391,367.061 C-0.265,351.587 -5.966,311.218 11.387,268.738 C19.098,249.877 33.196,226.81 58.903,207.635 C50.143,189.87 44.791,168.767 62.772,148.487 C80.348,128.649 121.424,110.863 167.088,93.064 C169.695,82.138 175.814,70.835 187.465,59.337 C217.414,29.802 285.579,-1.689 351.041,0.071 C413.073,1.692 475.469,34.405 505.026,65.882 C511.85,73.148 516.663,80.182 519.933,86.944 C564.614,102.019 608.029,120.245 627.065,143.165 C643.263,162.633 642.425,183.464 636.027,203.723 C663.047,223.052 678.2,246.496 686.645,265.629 C705.394,308.095 701.02,348.465 693.868,363.931 C691.416,369.254 684.989,378.189 669.551,378.189 C654.469,378.189 634.001,369.457 608.077,358.405 C592.164,351.629 574.994,344.309 556.971,338.036 C546.437,351.022 535.126,360.809 520.905,364.351 C517.082,365.308 513.018,365.79 508.805,365.79 C491.627,365.79 473.192,357.973 449.854,348.053 L445.403,346.167 L427.772,338.909 C406.2,349.471 377.364,356.051 350.441,356.191 z M120.635,319.726 L119.419,317.868 L72.057,231.504 C56.039,244.177 44.051,260.132 36.248,279.238 C23.059,311.525 26.161,343.31 30.939,354.48 L31.749,354.501 C41.313,354.501 61.096,345.95 82.032,336.904 C93.943,331.749 107.187,326.027 121.327,320.599 C121.096,320.313 120.866,320.02 120.635,319.726 M622.174,236.59 L621.545,237.736 C605.563,264.155 589.035,291.462 573.988,314.208 C573.702,314.633 573.414,315.074 573.128,315.5 C589.418,321.473 604.683,327.983 618.249,333.768 C639.477,342.814 659.54,351.364 669.111,351.364 L669.914,351.337 C674.33,340.173 676.375,308.396 662.125,276.115 C653.855,257.379 641.671,241.683 625.702,229.129 C624.529,231.637 623.348,234.124 622.174,236.59 M222.436,263.659 L176.666,149.926 C173.187,141.271 169.415,131.889 167.278,121.977 C129.856,136.815 95.709,152.106 82.975,166.462 C73.215,177.478 77.569,187.663 90.631,209.982 L142.352,304.309 C154.69,320.083 166.411,334.815 180.286,338.846 C195.562,343.24 220.732,334.627 242.038,325.769 L254.248,320.571 C238.664,304.002 230.435,283.541 222.436,263.659 M517.984,147.433 L476.028,280.418 C471.124,293.747 465.858,308.04 453.604,320.712 L455.518,321.494 L459.99,323.394 C484.097,333.628 502.372,341.235 513.995,338.329 C526.856,335.123 539.087,317.959 551.536,299.14 C566.185,277.009 582.448,250.156 598.193,224.142 C612.143,194.795 619.59,175.787 606.547,160.105 C592.925,143.695 556.502,128.201 525.787,117.192 C524.963,128.516 521.219,138.666 517.984,147.433 M346.347,26.833 C291.628,26.833 232.264,53.148 206.467,78.589 C186.16,98.625 191.092,114.293 201.535,140.266 L247.284,253.984 C255.799,275.123 263.819,295.06 280.018,308.305 C296.127,321.494 321.94,329.367 349.072,329.367 L349.861,329.367 C376.944,329.227 407.032,321.305 424.747,309.646 C440.289,299.398 445.081,286.412 450.642,271.358 L492.577,138.415 C500.143,117.862 504.997,104.702 485.612,84.073 C460.569,57.402 404.803,28.3 350.789,26.896 L346.347,26.833" />
    </g>
  </g>
</svg>
