<?xml version="1.0" encoding="utf-8"?>
<!-- Generator: Adobe Illustrator 19.0.0, SVG Export Plug-In . SVG Version: 6.00 Build 0)  -->
<svg version="1.1" width="10rem" id="Capa_1" xmlns="http://www.w3.org/2000/svg" xmlns:xlink="http://www.w3.org/1999/xlink" x="0px" y="0px "
	 viewBox="0 0 960 560" enable-background="new 0 0 960 560" xml:space="preserve">
<style type="text/css">
	.st0{fill:#FFB3E2;}
	.st1{clip-path:url(#XMLID_3_);fill:#E897CD;}
	.st2{clip-path:url(#XMLID_4_);fill:#E897CD;}
	.st3{fill:none;stroke:#000000;stroke-width:10;stroke-linecap:round;stroke-miterlimit:10;}
	.st4{fill:#D37E44;}
	.st5{fill:#AD6738;}
	.st6{fill:none;stroke:#000000;stroke-width:3;stroke-miterlimit:10;}
	.st7{fill:none;stroke:#000000;stroke-width:3;stroke-linecap:round;stroke-linejoin:round;stroke-miterlimit:10;}
	.st8{fill:#F9B458;}
	.st9{fill:#D69343;}
	.st10{fill:#FCA742;stroke:#000000;stroke-width:2;stroke-linecap:round;stroke-linejoin:round;stroke-miterlimit:10;}
	.st11{fill:#F2A319;}
	.st12{fill:#C47E0E;}
	.st13{fill:#AF5112;stroke:#000000;stroke-width:2;stroke-linecap:round;stroke-linejoin:round;stroke-miterlimit:10;}
	.st14{fill:#AA7707;}
	.st15{fill:#724F09;}
	.st16{fill:#FFFFFF;}
	.st17{opacity:0.5;fill:#E8E8E8;}
	.st18{fill:#FFFFFF;stroke:#000000;stroke-width:3;stroke-linecap:round;stroke-linejoin:round;stroke-miterlimit:10;}
	.st19{fill:#917663;}
	.st20{fill:#755A48;}
	.st21{fill:#F2D1BB;}
	.st22{fill:none;}
	.st23{fill:#E0AA85;}
	.st24{fill:#FFFFFF;stroke:#000000;stroke-width:4;stroke-linecap:round;stroke-linejoin:round;stroke-miterlimit:10;}
	.st25{fill:#FFFFFF;stroke:#282828;stroke-width:4;stroke-linecap:round;stroke-linejoin:round;stroke-miterlimit:10;}
	.st26{fill:#C1723D;stroke:#000000;stroke-width:2;stroke-linecap:round;stroke-linejoin:round;stroke-miterlimit:10;}
	.st27{fill:#C1723D;stroke:#000000;stroke-width:4;stroke-linecap:round;stroke-linejoin:round;stroke-miterlimit:10;}
	.st28{fill:#935D38;}
	.st29{fill:#BCBCBC;stroke:#000000;stroke-width:4;stroke-linecap:round;stroke-linejoin:round;stroke-miterlimit:10;}
	.st30{fill:#F9B38C;stroke:#000000;stroke-width:4;stroke-linecap:round;stroke-linejoin:round;stroke-miterlimit:10;}
	.st31{fill:#F7A57C;}
	.st32{fill:#F7A57C;stroke:#000000;stroke-width:4;stroke-linecap:round;stroke-linejoin:round;stroke-miterlimit:10;}
	.st33{fill:#F9B38C;}
	.st34{fill:none;stroke:#000000;stroke-width:4;stroke-linecap:round;stroke-linejoin:round;stroke-miterlimit:10;}
	.st35{fill:#FFFFFF;stroke:#000000;stroke-width:2;stroke-miterlimit:10;}
	.st36{fill:#F7A57C;stroke:#000000;stroke-width:3;stroke-linecap:round;stroke-linejoin:round;stroke-miterlimit:10;}
	.st37{fill:#F9B38C;stroke:#000000;stroke-width:3;stroke-linecap:square;stroke-linejoin:round;stroke-miterlimit:10;}
	.st38{fill:#774B2C;stroke:#000000;stroke-width:3;stroke-linecap:round;stroke-linejoin:round;stroke-miterlimit:10;}
	.st39{fill:#663A1D;}
	.st40{display:none;fill:#774B2C;stroke:#000000;stroke-width:3;stroke-linecap:round;stroke-linejoin:round;stroke-miterlimit:10;}
	.st41{fill:#FFFFFF;stroke:#000000;stroke-width:2;stroke-linecap:round;stroke-linejoin:round;stroke-miterlimit:10;}
	.st42{fill:none;stroke:#000000;stroke-width:2;stroke-linecap:round;stroke-linejoin:round;stroke-miterlimit:10;}
	.st43{opacity:0.46;fill:#E8E8E8;}
	.st44{fill:#E8E8E8;}
	.st45{opacity:0.49;fill:#E8E8E8;}
</style>
<g id="XMLID_1193_">
	<g id="XMLID_1631_">
		<circle id="XMLID_1677_" class="st0" cx="478.2" cy="308.1" r="248.9"/>
		<g id="XMLID_1665_">
			<defs>
				<circle id="XMLID_1666_" cx="478.2" cy="308.1" r="248.9"/>
			</defs>
			<clipPath id="XMLID_2_">
				<use xlink:href="#XMLID_1666_"  style="overflow:visible;"/>
			</clipPath>
		</g>
		<g id="XMLID_1649_">
			<defs>
				<circle id="XMLID_1650_" cx="478.2" cy="308.1" r="248.9"/>
			</defs>
			<clipPath id="XMLID_3_">
				<use xlink:href="#XMLID_1650_"  style="overflow:visible;"/>
			</clipPath>
			<path id="XMLID_1661_" class="st1" d="M746.4,420c-2.7-8.1-24.4-2.3-24.4-2.3c-1.6-1.8-3.5-3.4-5.7-4.9l4.2-5.2
				c-7.2-4.6-33.9-5.7-33.9-5.7l0,0c-2.9-0.6-5.8-1.1-8.7-1.5l1.1-13.7c6.6-6.7,10.6-10.7,10.6-10.7s-4.4-4-10.6-8.7l-0.5-2.3
				c9.1-10.5,17.4-20.4,18.3-22.8c2.1-5.5-0.7-10.7-9-7.6c-2.5,0.9-7.6,6-13.5,12.7l-4.7-20.1l0.6-4.1c3.5-0.4,6.4-3.1,7-6.8
				c0.6-3.8-1.6-7.5-5-8.9l0.1-1l-1.4-0.2l1.8-6.8l-0.1,0l0.1-0.5l-31-6l-0.9,9.1l-0.5-0.1c-3.1-0.5-6.1,0.9-7.9,3.2
				c-0.6-4.3-1.7-9.4-3.7-13.3c-3.8-7.6-10.7-6.9-12.8-6.5c-1.6-10.6-5.6-28.1-10.4-47.2l-0.6-3.5c1.5,0.7,2.3,1.2,2.3,1.2
				c6.7-12.2,5.1-50.3,4.1-65.2c22.7-5.4,45.2-25.5,50.8-48.3c6.9-28,0-45.9,0-45.9s-12.1-30.6-29-38c-16.9-7.4-60.2-11.6-74.4,8.4
				c0,0-49.1-44.9-110.9,9c0,0-37-26.4-58.6,4.8c-21.6,31.2-15.3,63.9-15.3,63.9s6.9,31.7,43.3,32.2c0.9,0,1.7,0,2.5,0
				c-4.8,21.8,0.3,46.2,1.8,52.7c-1.9,10.7-4.3,24.1-6.8,37.9l-6.4,28.5c0,0,0.4-0.6,1.2-1.6c-0.2,1-0.4,1.9-0.6,2.9l-8.8-3.7
				c0,0-7.4-2.7-11.1,6.3c-3.7,9-3.7,23.2-3.7,23.2s3.1,8.3,14.5,13.1c-0.1,0.4-0.3,0.8-0.4,1.1c-4.7,10.1-8.1,33.4,2.1,55.1
				c-5.7,4.2-12.7,9.7-20.2,15.9l-1.4-14.8l-3.2-24.3l-3.3-27.4l-4.4-29c0,0-8.6-30.7-9.4-33.5c-0.8-2.8-7.8-13.3-9.6-15.9
				c-1.9-2.6-8.6-1.7-8.6-1.7c0.5,0,1,0.2,1.4,0.3c-6.8,2.6-10.1,19.4-10.1,19.4s-1,29.5,0.5,63.9l-0.6-2.1l0.2-0.1c0,0-0.1,0-0.2,0
				l-2.5-8.5l-3.9-11.3l0.5-0.2c0,0-0.2,0-0.5,0.1l-7.5-21.8l0.3-0.1c0,0-0.1,0-0.3,0l-3.7-10.8l-6.2-10L303,255l-4.1-1.3l-1.7,1.3
				l0,0c-2.5,1.3-4.5,5.6-5.4,14.6c-2.7,26.5,13.4,98,20.8,128.9l-6.3-2.6c-4-1.7-8.3-3.6-12.4-5.1l-9.7-4c0,0-16.3-2.5-29.9,8.6
				c0,0,0.4-0.1,1-0.2c-8.6,7-15.1,19.3-11.2,40.6c5.6,30.5,20.4,49.2,28.7,57.6l1.9,2.2c-4.7,2-8.1,4.4-8.3,7.2
				c-0.2,2.3,0.4,6,1.3,10.2c-2.4,1.5-5.1,3.3-7.2,5l-0.4,0v0c-3,2.7-5,5.5-5,8c0,7.7-5.7,16.1,11.6,12.2c3.2-0.7,6.3-1.5,8.9-2.3
				c2.6,5.4,5.5,9.4,7.9,10.1c3.7,1.1,11.5-1.4,19.9-4.8c0,0,0.1,0,0.1,0c0,0,0,0,0,0c2.4-1,4.8-2,7.2-3c5.9,2.5,22.3,1.5,39.3-0.5
				c0.4,0.3,0.6,0.5,0.6,0.5l18.2-3c1.4-0.2,2.7-0.4,4-0.6c3.6,1.9,7.4,3.8,11.3,5.6l0,0c0.2,5.3,1.2,9.1,3.5,10.7
				c14.1,10.2,22.9,7.1,22.9,7.1s1.3-3.1,3.4-8.2l32,10.3l82,3.6l43.3-7.6l16.6-5.4c1.7,3.3,3.5,6.2,5.5,8.4c3,3.4,5.3,3.3,6.9,0.9
				c5.3,0.3,12.4,0,16.2-3.5c1.3-1.2,1.9-6.2,1.8-13.4c26.5,5.4,53.8,7.6,53.8,7.6c6-6.4,11.3-11.6,16-19.6h0l0,0.4
				c40.3-54,39.4-103.9,39.4-103.9s12,4.4,14.3,4.2C744.1,431.5,749.1,428.2,746.4,420z M633.1,315.6c1.2,1.3,2.8,2.3,4.7,2.6l1.9,0
				l0-0.2h0.4l-0.4,4.5l-21.5,43.9c0,0-0.7,5.5-1.7,13.2c-1.9,1.8-3.8,3.8-5.8,5.7c-2.6-1.5-5.2-2.7-7.8-3.5
				c8.3-16.9,11.8-36.6,13.2-53.7C627.8,324.1,632.1,317.4,633.1,315.6z"/>
		</g>
		<g id="XMLID_1633_">
			<defs>
				<circle id="XMLID_1634_" cx="478.2" cy="308.1" r="248.9"/>
			</defs>
			<clipPath id="XMLID_4_">
				<use xlink:href="#XMLID_1634_"  style="overflow:visible;"/>
			</clipPath>
			<path id="XMLID_1645_" class="st2" d="M746.4,420c-2.7-8.1-24.4-2.3-24.4-2.3c-1.6-1.8-3.5-3.4-5.7-4.9l4.2-5.2
				c-7.2-4.6-33.9-5.7-33.9-5.7l0,0c-2.9-0.6-5.8-1.1-8.7-1.5l1.1-13.7c6.6-6.7,10.6-10.7,10.6-10.7s-4.4-4-10.6-8.7l-0.5-2.3
				c9.1-10.5,17.4-20.4,18.3-22.8c2.1-5.5-0.7-10.7-9-7.6c-2.5,0.9-7.6,6-13.5,12.7l-4.7-20.1l0.6-4.1c3.5-0.4,6.4-3.1,7-6.8
				c0.6-3.8-1.6-7.5-5-8.9l0.1-1l-1.4-0.2l1.8-6.8l-0.1,0l0.1-0.5l-31-6l-0.9,9.1l-0.5-0.1c-3.1-0.5-6.1,0.9-7.9,3.2
				c-0.6-4.3-1.7-9.4-3.7-13.3c-3.8-7.6-10.7-6.9-12.8-6.5c-1.6-10.6-5.6-28.1-10.4-47.2l-0.6-3.5c1.5,0.7,2.3,1.2,2.3,1.2
				c6.7-12.2,5.1-50.3,4.1-65.2c22.7-5.4,45.2-25.5,50.8-48.3c6.9-28,0-45.9,0-45.9s-12.1-30.6-29-38c-16.9-7.4-60.2-11.6-74.4,8.4
				c0,0-49.1-44.9-110.9,9c0,0-37-26.4-58.6,4.8c-21.6,31.2-15.3,63.9-15.3,63.9s6.9,31.7,43.3,32.2c0.9,0,1.7,0,2.5,0
				c-4.8,21.8,0.3,46.2,1.8,52.7c-1.9,10.7-4.3,24.1-6.8,37.9l-6.4,28.5c0,0,0.4-0.6,1.2-1.6c-0.2,1-0.4,1.9-0.6,2.9l-8.8-3.7
				c0,0-7.4-2.7-11.1,6.3c-3.7,9-3.7,23.2-3.7,23.2s3.1,8.3,14.5,13.1c-0.1,0.4-0.3,0.8-0.4,1.1c-4.7,10.1-8.1,33.4,2.1,55.1
				c-5.7,4.2-12.7,9.7-20.2,15.9l-1.4-14.8l-3.2-24.3l-3.3-27.4l-4.4-29c0,0-8.6-30.7-9.4-33.5c-0.8-2.8-7.8-13.3-9.6-15.9
				c-1.9-2.6-8.6-1.7-8.6-1.7c0.5,0,1,0.2,1.4,0.3c-6.8,2.6-10.1,19.4-10.1,19.4s-1,29.5,0.5,63.9l-0.6-2.1l0.2-0.1c0,0-0.1,0-0.2,0
				l-2.5-8.5l-3.9-11.3l0.5-0.2c0,0-0.2,0-0.5,0.1l-7.5-21.8l0.3-0.1c0,0-0.1,0-0.3,0l-3.7-10.8l-6.2-10L303,255l-4.1-1.3l-1.7,1.3
				l0,0c-2.5,1.3-4.5,5.6-5.4,14.6c-2.7,26.5,13.4,98,20.8,128.9l-6.3-2.6c-4-1.7-8.3-3.6-12.4-5.1l-9.7-4c0,0-16.3-2.5-29.9,8.6
				c0,0,0.4-0.1,1-0.2c-8.6,7-15.1,19.3-11.2,40.6c5.6,30.5,20.4,49.2,28.7,57.6l1.9,2.2c-4.7,2-8.1,4.4-8.3,7.2
				c-0.2,2.3,0.4,6,1.3,10.2c-2.4,1.5-5.1,3.3-7.2,5l-0.4,0v0c-3,2.7-5,5.5-5,8c0,7.7-5.7,16.1,11.6,12.2c3.2-0.7,6.3-1.5,8.9-2.3
				c2.6,5.4,5.5,9.4,7.9,10.1c3.7,1.1,11.5-1.4,19.9-4.8c0,0,0.1,0,0.1,0c0,0,0,0,0,0c2.4-1,4.8-2,7.2-3c5.9,2.5,22.3,1.5,39.3-0.5
				c0.4,0.3,0.6,0.5,0.6,0.5l18.2-3c1.4-0.2,2.7-0.4,4-0.6c3.6,1.9,7.4,3.8,11.3,5.6l0,0c0.2,5.3,1.2,9.1,3.5,10.7
				c14.1,10.2,22.9,7.1,22.9,7.1s1.3-3.1,3.4-8.2l32,10.3l82,3.6l43.3-7.6l16.6-5.4c1.7,3.3,3.5,6.2,5.5,8.4c3,3.4,5.3,3.3,6.9,0.9
				c5.3,0.3,12.4,0,16.2-3.5c1.3-1.2,1.9-6.2,1.8-13.4c26.5,5.4,53.8,7.6,53.8,7.6c6-6.4,11.3-11.6,16-19.6h0l0,0.4
				c40.3-54,39.4-103.9,39.4-103.9s12,4.4,14.3,4.2C744.1,431.5,749.1,428.2,746.4,420z M633.1,315.6c1.2,1.3,2.8,2.3,4.7,2.6l1.9,0
				l0-0.2h0.4l-0.4,4.5l-21.5,43.9c0,0-0.7,5.5-1.7,13.2c-1.9,1.8-3.8,3.8-5.8,5.7c-2.6-1.5-5.2-2.7-7.8-3.5
				c8.3-16.9,11.8-36.6,13.2-53.7C627.8,324.1,632.1,317.4,633.1,315.6z"/>
		</g>
		<circle id="XMLID_1632_" class="st3" cx="478.2" cy="308.1" r="248.9"/>
	</g>
	<g id="Panes_2_">
		<path id="XMLID_1629_" class="st4" d="M361.1,381.8c0,0-9.3-112.4-25.1-143.7c-15.8-31.3-23.4,7.6-23.4,7.6s-4.3,121.6,17.8,159.9
			C352.5,443.8,361.1,381.8,361.1,381.8z"/>
		<path id="XMLID_1618_" class="st5" d="M359.8,357.8l-3.2-24.3l-3.3-27.4l-4.4-29c0,0-8.6-30.7-9.4-33.5
			c-0.8-2.8-7.8-13.3-9.6-15.9c-1.9-2.6-8.6-1.7-8.6-1.7c7.7,0.6,11.5,18.5,11.5,18.5s13,90.8,17,126.8c0.1,1.2,0.3,2.4,0.4,3.5
			c0,0-12,6.1-17.4,11.6c-5.3,5.5,11.5,31.6,11.5,31.6s1-1.6,2.4-4.4c-1.3,3.1-2.4,4.4-2.4,4.4l1.8,0.3l5-2.7l6.1-11.3l5.1-21.7
			L359.8,357.8z"/>
		<path id="XMLID_1617_" class="st6" d="M361.1,381.8c0,0-9.3-112.4-25.1-143.7c-15.8-31.3-23.4,7.6-23.4,7.6s-4.3,121.6,17.8,159.9
			C352.5,443.8,361.1,381.8,361.1,381.8z"/>
		<path id="XMLID_1616_" class="st4" d="M296,397.5c0,0-27.9-109.2-24.4-143.4c3.5-34.2,22.4,0.4,22.4,0.4s42.4,114,35.8,156.6
			S296,397.5,296,397.5z"/>
		<path id="XMLID_1615_" class="st5" d="M331,390.4l-1.4-13.3l-9.5-44.1l-10.2-34l-15.2-44.1l-6.2-10l-5.7-5.5l-4.1-1.3l-1.7,1.3
			c0,0,9.1,5,11.5,16.9c1.7,8.4,18.6,81,28.5,123.4c0,0,1.8,15.2-22.3,0l0.4,25.4l25.6,21.9l1.9,0.1l3.3-2.1l4-8.4l1.2-13.1
			L331,390.4z"/>
		<path id="XMLID_1613_" class="st7" d="M296,397.5c0,0-27.9-109.2-24.4-143.4c3.5-34.2,22.4,0.4,22.4,0.4s42.4,114,35.8,156.6
			S296,397.5,296,397.5z"/>
		<path id="XMLID_1602_" class="st8" d="M343.9,420.2l-43-33.1c0,0-31.5-15.2-40.7-15.8c-9.2-0.7-44.2,5.6-36.3,49
			c7.9,43.3,34.6,62.9,34.6,62.9s60.9-5.1,72-13.5S343.9,420.2,343.9,420.2z"/>
		<path id="XMLID_1601_" class="st9" d="M273.7,375.3c0,0,11,12.4,18.7,18.1c8.4,6.2,15.3,9.7,19.7,15.5c0,0-21.2,17.5-23.2,41
			c0,0-20.8,4.1-23.1,11.9l0.4,3.4c0,0-15.9,3.2-17.6,8.1l7.6,8.9H286l23.4-4.4l18.3-4.7l5.6-4.2l8.4-18.9l3.4-31.5l-17.4-12.6
			l-24.5-18.3l-13.2-5.3C290,382.1,286.5,379.8,273.7,375.3z"/>
		<path id="XMLID_1600_" class="st7" d="M343.9,420.2l-43-33.1c0,0-31.5-15.2-40.7-15.8c-9.2-0.7-44.2,5.6-36.3,49
			c7.9,43.3,34.6,62.9,34.6,62.9s60.9-5.1,72-13.5S343.9,420.2,343.9,420.2z"/>
		<g id="XMLID_1581_">
			<path id="XMLID_1599_" class="st10" d="M283.3,393.4c0,0-35.2-2.9-38.7,33.7"/>
			<path id="XMLID_1597_" class="st10" d="M303.2,413.3c0,0-35.2-2.9-38.7,33.7"/>
			<path id="XMLID_1586_" class="st10" d="M327.7,430.1c0,0-35.2-2.9-38.7,33.7"/>
		</g>
		<path id="XMLID_1570_" class="st11" d="M376.7,515.2L332,459c0,0-55.1-3.3-57.1,5.9c-0.4,1.9-0.6,5.4-0.4,9.6
			c-11.3,2.2-27.8,6.6-28.3,12.8c-0.2,2.3,0.4,6,1.3,10.2c-5.9,3.9-12.2,9-12.2,13c0,7.7-5.9,16.1,11.4,12.2
			c3.2-0.7,6.2-1.5,8.8-2.3c2.6,5.4,5.4,9.4,7.8,10.1c4.8,1.4,16.4-3.2,27.2-7.8C304.5,528.6,376.7,515.2,376.7,515.2z"/>
		<path id="XMLID_1569_" class="st12" d="M330.5,522.8c0,0-36-25.7-29.6-64.2L332,459l44.7,56.3L330.5,522.8z"/>
		<path id="XMLID_1568_" class="st12" d="M274.5,475.8l-9.9,1.9c0,0,9.2,53.6,18.8,48.1c9.5-5.5,5.7-4,5.7-4
			S276.3,503.1,274.5,475.8z"/>
		<polygon id="XMLID_1567_" class="st12" points="247.5,498.6 240.7,502.5 248.2,520.5 253.4,518.7 		"/>
		<g id="XMLID_1549_">
			<path id="XMLID_1565_" class="st13" d="M298.8,265.7c0,0-11.7,1.8-19.1,7.1"/>
			<path id="XMLID_1554_" class="st13" d="M312.7,307.5c0,0-14.6,1.9-23.7,9"/>
			<path id="XMLID_1553_" class="st13" d="M318.8,325.8c0,0-14.6,1.9-23.7,9"/>
			<path id="XMLID_1552_" class="st13" d="M323.6,346.4c0,0-16.6,0.5-25.7,10.9"/>
			<path id="XMLID_1551_" class="st13" d="M328.2,369.4c0,0-16.6,0.5-25.7,10.9"/>
			<path id="XMLID_1550_" class="st13" d="M306.5,287.6c0,0-14.6,1.9-23.7,9"/>
		</g>
		<g id="XMLID_1521_">
			<path id="XMLID_1538_" class="st13" d="M336.7,255.4c0,0-9.4-3.6-16.4,2.2"/>
			<path id="XMLID_1537_" class="st13" d="M342,272.7c0,0-13.4-5.1-23.3,3.1"/>
			<path id="XMLID_1536_" class="st13" d="M345.1,294.1c0,0-14.3-5.1-24.9,3.1"/>
			<path id="XMLID_1535_" class="st13" d="M349.7,314c0,0-15.2-5.1-26.4,3.1"/>
			<path id="XMLID_1534_" class="st13" d="M351.2,337c0,0-15.2-5.1-26.4,3.1"/>
			<path id="XMLID_1533_" class="st13" d="M354.3,359.9c0,0-15.2-5.1-26.4,3.1"/>
			<path id="XMLID_1522_" class="st13" d="M357.3,381.3c0,0-15.2-5.1-26.4,3.1"/>
		</g>
		<g id="XMLID_1505_">
			<path id="XMLID_1520_" class="st7" d="M376.7,515.2L332,459c0,0-55.1-3.3-57.1,5.9c-0.4,1.9-0.6,5.4-0.4,9.6
				c-11.3,2.2-27.8,6.6-28.3,12.8c-0.2,2.3,0.4,6,1.3,10.2c-5.9,3.9-12.2,9-12.2,13c0,7.7-5.9,16.1,11.4,12.2
				c3.2-0.7,6.2-1.5,8.8-2.3c2.6,5.4,5.4,9.4,7.8,10.1c4.8,1.4,16.4-3.2,27.2-7.8C304.5,528.6,376.7,515.2,376.7,515.2z"/>
			<path id="XMLID_1519_" class="st7" d="M274.5,474.5c0,0,5.4,43.1,16.1,48.3"/>
			<path id="XMLID_1516_" class="st7" d="M247.5,497.5c0,0,5.2,17.9,8,23"/>
		</g>
	</g>
	<g id="Harina_y_leche_2_">
		<g id="XMLID_1333_">
			<polygon id="XMLID_1504_" class="st14" points="619.8,297 621.7,277.8 652.7,284 647.7,303 619.6,303 			"/>
			<polygon id="XMLID_1503_" class="st15" points="637.2,281.3 634.4,300 648.7,300 652.5,284.4 			"/>
			<polygon id="XMLID_1501_" class="st7" points="619.8,296.7 621.7,277.7 652.7,283.7 647.7,302.5 619.6,302.5 			"/>
			<path id="XMLID_1499_" class="st15" d="M730.1,338.3"/>
			<path id="XMLID_1358_" class="st16" d="M621.5,289.1l-1.9,19.8l-21.5,43.8c0,0-8.7,66.3-9,67.6c-0.3,1.4,64.4,17.9,64.4,17.9
				l6.6-80.1l-10.6-45.3l2.9-20.2L621.5,289.1z"/>
			<polygon id="XMLID_1338_" class="st17" points="636.2,290.7 634.1,308.1 642,357.2 634.1,433.1 653.5,438.2 660.1,358.1 
				649.5,312.7 652.3,292.6 			"/>
			<path id="XMLID_1336_" class="st7" d="M621.5,287.6l-1.9,19.8l-21.5,43.8c0,0-8.7,66.3-9,67.6c-0.3,1.4,64.4,17.9,64.4,17.9
				l6.6-80.1l-10.6-45.3l2.9-20.2L621.5,287.6z"/>
			<path id="XMLID_1335_" class="st18" d="M650.6,308.1l-35.7-5.8c-2.9-0.5-4.9-3.2-4.4-6.1l0.9-5.6c0.5-2.9,3.2-4.9,6.1-4.4
				l35.7,5.8c2.9,0.5,4.9,3.2,4.4,6.1l-0.9,5.6C656.3,306.6,653.5,308.5,650.6,308.1z"/>
			<path id="XMLID_1334_" class="st17" d="M636.2,291.6L635,303l13.6,2.4c0,0,5.5,0.4,6.5-4.8c1.1-5.2-4.1-6.5-4.1-6.5L636.2,291.6z
				"/>
		</g>
		<g id="XMLID_1304_">
			<path id="XMLID_1332_" class="st19" d="M610.5,382.5c0,0,70.9-3.1,91.4,19.8c0,0,21.7-5.8,24.4,2.3c2.7,8.1-2.3,11.5-4.6,11.8
				s-14.3-4.1-14.3-4.1s1.2,62.6-55.4,123.3c0,0-106.2-10.2-103.1-31.5S610.5,382.5,610.5,382.5z"/>
			<path id="XMLID_1331_" class="st20" d="M675.9,390.6l-19.4,24c0,0,12.5,25.2,4.8,44.1c-7.7,18.9-48.7,70.9-48.7,70.9l-36.3-6.3
				l-7.1-29.6l72.7-108.8C642.1,384.9,668.8,386,675.9,390.6z"/>
			<path id="XMLID_1330_" class="st20" d="M689,395.7c0,0,10.5,7.1,11,7.9s1.9,1.2,3.1,0.8c0,0,8-2,13.1-1.8
				c5.2,0.1,6.7,1.3,6.7,1.3s0.6-0.6,1.6,2.8c1,3.3-0.8,5.7-0.8,5.7s-1,1.7-2,1.7c-1,0-6.6-1.2-13.5-3.8c0,0-2.5-1-3.3,2
				c0,0-0.3,15.4-2,19.2c0,0-4.6,25.2-7.3,28.1l-10.1,17.6l-13.3,25.9l-5.3,10.2l-2.4,4c0,0-12.1,14.7-13.6,16.1l-13.6-1.6
				C637.5,531.7,710.4,447.6,689,395.7z"/>
			<path id="XMLID_1329_" class="st21" d="M668,516.4c-34.3-21.9-147.5-33.9-147.5-33.9s-15.4-59.3,48.9-57.1s126.3,36.7,126.3,36.7
				L668,516.4z"/>
			<path id="XMLID_1328_" class="st7" d="M610.5,382.5c0,0,70.9-3.1,91.4,19.8c0,0,21.7-5.8,24.4,2.3c2.7,8.1-2.3,11.5-4.6,11.8
				s-14.3-4.1-14.3-4.1s1.2,62.6-55.4,123.3c0,0-106.2-10.2-103.1-31.5S610.5,382.5,610.5,382.5z"/>
			<g id="XMLID_1325_">
				<path id="XMLID_1327_" class="st22" d="M681.1,416.1l19.4-24c-7.2-4.6-33.9-5.7-33.9-5.7l-30.8,46c19.9,4.4,38.1,10.7,52.5,16.4
					C689.2,432.6,681.1,416.1,681.1,416.1z"/>
				<path id="XMLID_1326_" class="st22" d="M596.5,491.1l-2.7,4l7.1,29.6l36.3,6.3c0,0,9.7-12.2,20.5-27
					C638.6,498.7,616.3,494.4,596.5,491.1z"/>
			</g>
			<path id="XMLID_1324_" class="st23" d="M661.4,457.1c1.5-3.6,2.2-7.5,2.4-11.4c-14.4-5.8-32.6-12.1-52.5-16.4l-39.3,58.7
				c19.7,3.3,42.1,7.6,61.1,13C644.7,485.4,657.5,466.9,661.4,457.1z"/>
			<path id="XMLID_1306_" class="st23" d="M684.3,459l11.4,4.8L668.1,515l-11.8-6.1C656.3,509,672.9,488.6,684.3,459z"/>
			<path id="XMLID_1305_" class="st7" d="M668,516.4c-34.3-21.9-147.5-33.9-147.5-33.9s-15.4-59.3,48.9-57.1s126.3,36.7,126.3,36.7
				L668,516.4z"/>
		</g>
	</g>
	<path id="XMLID_1303_" class="st24" d="M587,529.1c0,0,44.4-23,53-61.2c8.7-38.3-34.4-103-66.2-103c-31.8,0-178.7-17.9-178.7-17.9
		s-82.6,54.1-87.7,98.4s19.8,62.1,56.5,79.4l61.8,19.8l82,3.6l43.3-7.6L587,529.1z"/>
	<path id="XMLID_1302_" class="st17" d="M611.9,441h-16.8l29.5-30.2c0,0,13.7,31.6,13.4,43c-0.4,11.5,1.7,30.8-36.7,62.5l-15.3,9.6
		l-36.4,12l-41.8,6.6l-81.9-3l-61.8-20.4l40.5-2.7c0,0-1.2-69,49.4-70.9c22.4-0.8,69.8,11.3,93.3,0c13.9-6.6,46.4,53.7,59.2,41.7
		C606.4,489.3,634.7,462,611.9,441z"/>
	<polygon id="XMLID_1301_" class="st17" points="611.9,441 595.1,441 624.9,411.1 629.6,423.3 	"/>
	<path id="XMLID_1300_" class="st17" d="M587.5,369h-4.6c0,0-15.5,47.2-97.1,44.3c-81.6-3-105.6-52.7-105.6-52.7s19.9,40.2,45.5,46
		c0,0-2.9,6.9-5.6,15c-0.7,2.2-21.5-10.6-22.2-8.3c-0.9,3.3-2.5,19.4-2.9,22.3c-0.4,3.1,20.5,8.1,21.2,9.8c3.5,8.4,9.4,2.2,9.4,2.2
		s-10.6,3,6.4-39.3C432.2,408.3,554.6,451,587.5,369z"/>
	<path id="XMLID_1299_" class="st24" d="M439.9,395.9c0,0-19.7,36.6-12.6,65.7"/>
	<circle id="XMLID_1298_" class="st24" cx="453.8" cy="433.9" r="8.5"/>
	<circle id="XMLID_1297_" class="st24" cx="512" cy="433.9" r="8.5"/>
	<line id="XMLID_1296_" class="st25" x1="395.2" y1="412.3" x2="390.2" y2="438"/>
	<line id="XMLID_1295_" class="st25" x1="577.4" y1="416.3" x2="577.1" y2="442"/>
	<g id="XMLID_1276_">
		<path id="XMLID_1294_" class="st26" d="M621.5,372.5c0,0,38-50.2,46.3-53.3c8.3-3.1,11.1,2.1,9,7.6c-2.1,5.5-43.2,50.7-43.2,50.7"
			/>
		<path id="XMLID_1293_" class="st27" d="M510.5,455.4c0,0,102.4-114.8,117.6-116.9c15.2-2.1,41.5,22.1,41.5,22.1
			s-128.3,128.7-131.8,139C534.4,510,466.6,487.5,510.5,455.4z"/>
		<path id="XMLID_1278_" class="st28" d="M509.8,492.1l139.7-142.2l15.5,10.8c0,0-127.7,128.1-130.1,138.7
			C534.8,499.4,520.4,499.2,509.8,492.1z"/>
		<path id="XMLID_1277_" class="st28" d="M670.7,320.2c0,0,3.5,1.4,3.2,3.7c-0.3,2.3-19.3,21.1-19.3,21.1l3.6,2.4
			c0,0,17.1-19.6,17.1-20.8C675.3,325.4,678.3,318.9,670.7,320.2z"/>
	</g>
	<path id="XMLID_1275_" class="st29" d="M549.5,433.9c0,0,3.3,87.1,23.7,109.8C593.6,566.3,579.4,436.1,549.5,433.9z"/>
	<path id="XMLID_1274_" class="st29" d="M390.3,542.6c0,0,34.6-80,26-109.2C407.8,404.1,364.3,527.6,390.3,542.6z"/>
	<g id="XMLID_1249_">
		<g id="XMLID_1254_">
			<path id="XMLID_1255_" class="st30" d="M587.2,460.5L577.1,445h-1.9c0,0-81.8,14.3-109.2,26.5c-4.5,15.5-8.4,31.7-9.8,47.2
				c4.8,3.5,36,23.7,101.9,16.5C630.2,527.2,587.2,460.5,587.2,460.5z"/>
		</g>
		<path id="XMLID_1253_" class="st31" d="M596.8,495c0,0-16.4-48.2-19.4-47.4c-4.7,1.2-11.8,3.5-22,5.5c-3,0.6-1.8,44.6-5.1,45.2
			c-26.9,4.6-54.7,13.1-88,5.9l-2.9,13.1c0,0,21.6,14.1,59.4,16.1c37.8,2,56.6-5.4,56.6-5.4S598.5,523.2,596.8,495z"/>
		<path id="XMLID_1252_" class="st32" d="M495.9,475.5c0,0,11.6,22.5,2.2,47.7"/>
		<path id="XMLID_1251_" class="st32" d="M528.6,469.7c0,0,23.3,27.7,6.2,51.5"/>
		<path id="XMLID_1250_" class="st32" d="M561.4,462.1c0,0,27.1,33.6,10.9,54.3"/>
	</g>
	<g id="XMLID_1234_">
		<path id="XMLID_1248_" class="st33" d="M373.3,429.8c0,0,99.4,20.2,111,32.5l19.6-14.9c0,0,21.4,1.4,10,14.9
			c0,0,23.5-6.9,31.5,3.8c8,10.7,10,15.6,10,15.6s-3.5,30.4-21.1,37.7c-17.6,7.3-47.4-14.2-47.4-14.2s-29.1,24.6-97.5,16.6
			c-68.5-8-46.3-59.8-46.3-59.8l28.4-32.2"/>
		<path id="XMLID_1247_" class="st31" d="M545.4,466.1c-3.9-5.3-11.7-6.3-18.5-5.9c7,6.9,18.2,20.6,12.1,31.7
			c-8.7,15.6-12.2,16.6-12.2,16.6s-19.6,3.8-37.7-8.2c0,0-43.3,7.3-78.5,7.4c-4.1,0,9-65,5.3-65.2c-4.2-0.2-13.4,3.5-17.1,3
			c-10-1.5-29.2,56.5-31.6,51.6c-11-21.8-10.4-47.2-9.9-51.1l-14.1,16c0,0-22.1,51.9,46.3,59.8c68.5,8,97.5-16.6,97.5-16.6
			s29.7,21.4,47.4,14.2c17.6-7.3,21.1-37.7,21.1-37.7S553.4,476.8,545.4,466.1z"/>
		<path id="XMLID_1246_" class="st34" d="M373.3,429.8c0,0,99.4,20.2,111,32.5l19.6-14.9c0,0,21.4,1.4,10,14.9
			c0,0,23.5-6.9,31.5,3.8c8,10.7,10,15.6,10,15.6s-3.5,30.4-21.1,37.7c-17.6,7.3-47.4-14.2-47.4-14.2s-29.1,24.6-97.5,16.6
			c-68.5-8-46.3-59.8-46.3-59.8l28.4-32.2"/>
		<line id="XMLID_1240_" class="st30" x1="533.4" y1="492.1" x2="552.4" y2="495"/>
		<line id="XMLID_1239_" class="st30" x1="534" y1="476" x2="549" y2="476"/>
		<line id="XMLID_1238_" class="st30" x1="526.1" y1="505.7" x2="542.9" y2="509"/>
		<path id="XMLID_1237_" class="st32" d="M436.2,464.7c0,0-13.5,15-4.5,40.2"/>
		<path id="XMLID_1236_" class="st32" d="M408.8,457.4c0,0-22.1,27.7-5.9,51.5"/>
		<path id="XMLID_1235_" class="st32" d="M377.7,449.8c0,0-25.8,33.6-10.4,54.3"/>
	</g>
	<polyline id="XMLID_1233_" class="st16" points="564.5,438.2 586.4,523.4 599.9,515.4 599.1,504.1 602.6,492.7 611.5,445.4 
		564.5,442.3 	"/>
	<path id="XMLID_1232_" class="st16" d="M601.5,487.6c0,0,4.7,15.4-2,28.1C593.2,527.6,594.7,496.1,601.5,487.6z"/>
	<path id="XMLID_1231_" class="st17" d="M602.6,492.7l-11.6,11.6l2,16.1l7.7-3.8l-2.9-4.8l2.4,2.4
		C600.2,514.2,605,504.4,602.6,492.7z"/>
	<line id="XMLID_1230_" class="st35" x1="611.5" y1="442.3" x2="585" y2="442.7"/>
	<path id="XMLID_1229_" class="st24" d="M573.2,543.6c0,0,16.4,3.4,23.1-2.6c6.7-6.1-6-107.5-23-110.6c-17.1-3.1-23.7,3.5-23.7,3.5
		S577.1,482.3,573.2,543.6z"/>
	<path id="XMLID_1228_" class="st17" d="M591.9,493l-18.6,2c0,0,3.9,13.3,3.2,46c0,0,12.4,1.8,17.6-2.1c0,0,2.1-9.7,0-27.2
		C592,494.3,591.9,493,591.9,493z"/>
	<path id="XMLID_1227_" class="st16" d="M377.7,412.3L397,438l-19.3,83.2c0,0-80.4-22.2-42.2-83.2S377.7,412.3,377.7,412.3z"/>
	<path id="XMLID_1226_" class="st24" d="M416.4,433.4c0,0-13.3-10.2-22-7.6c-8.7,2.6-41,99.6-27,109.7c14.1,10.2,22.9,7.1,22.9,7.1
		S386.4,487,416.4,433.4z"/>
	<path id="XMLID_1225_" class="st17" d="M398.7,465l-23.5,12.6c0,0-12.4,46.5-6.3,54.4c6.1,7.9,17.6,7.9,17.6,7.9
		S387.8,495.6,398.7,465z"/>
	<g id="XMLID_1207_">
		<path id="XMLID_1224_" class="st36" d="M577.3,276.5l18-6.3c0,0,8.9-2.7,13.4,6.3s4.5,23.2,4.5,23.2s-5.5,12.5-28.4,15.6"/>
		<path id="XMLID_1223_" class="st36" d="M395.2,264.3l-15-6.3c0,0-7.4-2.7-11.1,6.3c-3.7,9-3.7,23.2-3.7,23.2s4.6,12.5,23.5,15.6"
			/>
		<path id="XMLID_1222_" class="st37" d="M560.8,131c0,0-126.7,24.4-152,48.4l-3.4-7.3c0,0-19.5,115.4-26,129.5
			c-6.5,14.2-10.7,53.9,21.4,79.2c32.1,25.2,83.8,40.2,141.9,21.8c58.1-18.4,54.3-103.3,53.9-125.5C596.3,254.9,560.8,131,560.8,131
			z"/>
		<path id="XMLID_1221_" class="st31" d="M390.2,266.2c0,0,26.1-27.8,26.7-35.3c0.7-7.5,29.1-16.8,40.4-16c0,0,19.2-8.8,24-7.2
			c4.8,1.6,20.9,8.4,20.9,8.4s15-6.1,22.2-3.9c7.3,2.3,32.2,24.5,32.2,24.5l15.2,2.3l10.8,45.1c0,0-8.3,57.4-17.5,70.1
			c-8.2,11.3-43.1,43.5-84.4,38.2c-70-9-95.5-33.2-95.5-33.2s22.3,44.8,102.2,49.1c0,0,29.5,0.6,53.8-7.7
			c24.3-8.2,33.1-24.6,33.1-24.6s17.3-23.1,19.1-62c1.8-39,0.8-40.7,0.4-43.1c-0.4-2.4-12.2-42.7-12.2-42.7L512.8,193h-49.3
			l-26.1,5.3L410.2,213l-15,30.9L390.2,266.2z"/>
		<path id="XMLID_1220_" class="st38" d="M426.8,160.8l-22.2,26.8l-16.3,72.8c0,0,18.5-24.7,21.6-36.2l30.2-16.1l7.3,9.6
			c0,0,22.9-16.4,36.3-14.9l10.7,12.6c0,0,26-13.5,34-4.8c8,8.7,18,24.4,18,24.4l23.7-3.1l23.3,39.8l-15.3-93.4L426.8,160.8z"/>
		<path id="XMLID_1219_" class="st39" d="M590.1,259.7c0,0-3.2-1.7-5.6-8.2c-2.9-7.9-5.2-20.9-7.2-22.1c-14.6-8.8-52.8-30.2-80.1-30
			c-33.9,0.2-71.1-0.5-91.5,15l-7.5,13.7l11.8-49.5l146.9-6.8l31.1,32.7l-5.6,9.8L590.1,259.7z"/>
		<path id="XMLID_1218_" class="st36" d="M422.3,243.7c9.3-15.2,31.8-8,31.8-8s-20.4-0.3-26.3,14.9"/>
		<path id="XMLID_1217_" class="st36" d="M546.8,250.6c-7.3-16.3-30.4-12-30.4-12s20.2,2.3,24,18.1"/>
		<path id="XMLID_1216_" class="st36" d="M458.3,324.8c0,0,27.3,9.7,45-9.3"/>
		<path id="XMLID_1215_" class="st36" d="M487,375.8c-13.5,2.4-28.7-15.2-28.7-15.2"/>
		<path id="XMLID_1214_" class="st40" d="M556.6,285.2c6.2-1,5.5,5.2,5.5,5.2s-8,21.4-38.7-1.4c-22.4-16.6-38.3-9.1-45.3-3.7
			c-3.5-3.5-22.2-19.8-51.3,0.7c-32.4,22.8-40.8,1.4-40.8,1.4s-0.7-6.2,5.8-5.2c0,0-13.8-4.2-10.9,11.1c2.9,15,45.2,45.7,93.3,17.7
			c1,1.1,1.7,1.6,1.7,1.6c46.7,30.4,88.2-1,91-16.3C569.8,281,556.6,285.2,556.6,285.2z"/>
		<path id="XMLID_1213_" class="st36" d="M475.6,252.7c0,0-11.3,38,8.7,25.2"/>
	</g>
	<g id="XMLID_1194_">
		<g id="XMLID_1201_">
			<path id="XMLID_1206_" class="st18" d="M591,149.3c0,0,4.8,56-3.7,71.3c0,0-90.8-48.6-185.3-24.8c0,0-9.5-35.4,0-62.3
				c9.5-26.9,57-46.1,57-46.1l106.7,5L591,149.3z"/>
			<circle id="XMLID_1205_" class="st41" cx="461.3" cy="179.9" r="4"/>
			<path id="XMLID_1204_" class="st17" d="M589.2,158.1c-34.5,6.6-42-24.9-42-24.9c-6.6,23.5-32.5,28.4-32.5,28.4
				s-19.9,4.7-49.9-4.9c-30-9.6-36.5-28.1-36.5-28.1c-7.1,15.4-26.6,14.9-26.6,14.9c-1.7,5.5-1.7,20.3-1.7,20.3l6.2-12.2
				c7.6,0.2,23.5-6.1,23.5-6.1l6.2,7.2c1.2,1.5,7.4,6.5,9.2,7.9c1.1,0.8,6.3,25.6,7.5,26.4c1.7,1-4.1-26.1-2.1-25.2
				c20.4,9.1,52.8,12.8,63.3,11.4c13.6-1.8,35.6-19.5,35.6-19.5c4.9,12.7,21.6,13.5,30.3,12.9c0.5,8.3,1.8,40-5.1,45.9
				c0,0,9.4,3.7,11.4,5.1C588.2,218.8,591.7,191.4,589.2,158.1z"/>
			<path id="XMLID_1203_" class="st42" d="M454.8,189.2c0,0-7.4-37.3-2.6-53.7"/>
			<circle id="XMLID_1202_" class="st42" cx="459.7" cy="164.6" r="4"/>
		</g>
		<path id="XMLID_1200_" class="st18" d="M427.8,40.5c0,0-37-26.4-58.6,4.8s-15.3,63.9-15.3,63.9s6.9,31.7,43.3,32.2
			c36.4,0.5,30.6-28,30.6-28s-5.5,34.3,54.8,45.4c60.3,11.1,64.5-32.7,64.5-37.5c0,0,2.1,33.3,29,35.4c26.9,2.1,59.1-21.6,66-49.6
			c6.9-28,0-45.9,0-45.9s-12.1-30.6-29-38c-16.9-7.4-60.2-11.6-74.4,8.4C538.7,31.5,489.6-13.3,427.8,40.5z"/>
		<path id="XMLID_1199_" class="st17" d="M599.4,21.2c0,0-41.7-8.9-58.5,11.1c0,0-1.6,3-4.4,0.6s-22-16.8-43.4-16.4
			c0,0,42.8,11.9,44.8,43.8c0,0,2.7,8.5,3.1,4.2C543.1,33.9,551,28,599.4,21.2z"/>
		<path id="XMLID_1198_" class="st43" d="M355.4,97c0,0,8.6,30.8,29.6,33.7c21.1,2.9,34.6,8.4,36.5-21.6s6-33.1,6-33.1
			s-0.4,3.5,5.2,35.6c5.5,32.1,38.8,42.3,38.8,42.3s-17.3-4-29.3-14.3c0,0-10-9-11.9-19.7c0,0,0.6-4.1-0.5-7.5c0,0-1.8-2.9-4.1,0.2
			c0,0-0.4,6.1,0.2,7.5c0,0-0.2,11.3-12.4,16.7c-12.2,5.3-29.8,0.6-29.8,0.6s-17.9-5.2-25.1-22.3C358.4,115,355.2,111.4,355.4,97z"
			/>
		<path id="XMLID_1197_" class="st44" d="M407.1,33.7"/>
		<path id="XMLID_1196_" class="st44" d="M429.1,42.4c-1.4,1-2.9-0.2-2.9-0.2l-0.8-0.5c-4.9-3.3-12.7-6.3-12.7-6.3
			c7.2,3.8,10.9,8.3,12.8,11.8l0,0c0,0,1.9,2,3.6,0.3c3.8-7.6,13.4-15.4,13.4-15.4C440.1,33.3,430.5,41.4,429.1,42.4z"/>
		<path id="XMLID_1195_" class="st45" d="M642.5,82.8c0,0-4.2,58.9-56.6,65.8c0,0-29.9,8.4-36.4-37.1c0,0-4.2-9.6-6.5,0.4
			c-2.3,9.9-7.7,41.7-41.3,46.3c0,0,24.5,1.2,35.9-16.1c0,0,6.6-8.1,7.1-20.8c0,0-0.2-1.3,1.9-2.2c0,0,2.1-0.4,2.8,2.1
			c0,0,0.3,5.9,1.7,9.2c0,0,3.7,19.9,22.8,24.2c0,0,22.4,2.8,43.2-14.8C635.2,124.7,642.5,110.3,642.5,82.8z"/>
	</g>
</g>
</svg>
